<mxfile host="app.diagrams.net" agent="Mozilla/5.0 (Windows NT 10.0; Win64; x64) AppleWebKit/537.36 (KHTML, like Gecko) Chrome/131.0.0.0 Safari/537.36" version="25.0.3">
  <diagram name="第 1 页" id="DrtS67S4sz8FookTpbeo">
    <mxGraphModel dx="1720" dy="435" grid="1" gridSize="10" guides="1" tooltips="1" connect="1" arrows="1" fold="1" page="1" pageScale="1" pageWidth="827" pageHeight="1169" math="0" shadow="0">
      <root>
        <mxCell id="0" />
        <mxCell id="1" parent="0" />
        <mxCell id="NSRwM32KTP1u861fhQLI-22" value="" style="rounded=0;whiteSpace=wrap;html=1;fillColor=none;strokeColor=default;dashed=1;" vertex="1" parent="1">
          <mxGeometry x="880" y="280" width="160" height="260" as="geometry" />
        </mxCell>
        <mxCell id="NSRwM32KTP1u861fhQLI-3" value="" style="edgeStyle=orthogonalEdgeStyle;rounded=0;orthogonalLoop=1;jettySize=auto;html=1;flowAnimation=0;" edge="1" parent="1" source="NSRwM32KTP1u861fhQLI-1" target="NSRwM32KTP1u861fhQLI-2">
          <mxGeometry relative="1" as="geometry">
            <Array as="points">
              <mxPoint x="610" y="200" />
              <mxPoint x="610" y="200" />
            </Array>
          </mxGeometry>
        </mxCell>
        <mxCell id="NSRwM32KTP1u861fhQLI-1" value="User" style="shape=umlActor;verticalLabelPosition=bottom;verticalAlign=top;html=1;outlineConnect=0;" vertex="1" parent="1">
          <mxGeometry x="530" y="160" width="30" height="60" as="geometry" />
        </mxCell>
        <mxCell id="NSRwM32KTP1u861fhQLI-8" value="3.发送MQ" style="edgeStyle=orthogonalEdgeStyle;rounded=0;orthogonalLoop=1;jettySize=auto;html=1;fontStyle=1" edge="1" parent="1" source="NSRwM32KTP1u861fhQLI-2" target="NSRwM32KTP1u861fhQLI-7">
          <mxGeometry relative="1" as="geometry" />
        </mxCell>
        <mxCell id="NSRwM32KTP1u861fhQLI-2" value="1.创建短链" style="rounded=0;whiteSpace=wrap;html=1;fillColor=none;fontStyle=1" vertex="1" parent="1">
          <mxGeometry x="660" y="170" width="80" height="40" as="geometry" />
        </mxCell>
        <mxCell id="NSRwM32KTP1u861fhQLI-10" value="" style="edgeStyle=orthogonalEdgeStyle;rounded=0;orthogonalLoop=1;jettySize=auto;html=1;" edge="1" parent="1" source="NSRwM32KTP1u861fhQLI-7" target="NSRwM32KTP1u861fhQLI-9">
          <mxGeometry relative="1" as="geometry" />
        </mxCell>
        <mxCell id="NSRwM32KTP1u861fhQLI-7" value="" style="shape=image;verticalLabelPosition=bottom;labelBackgroundColor=default;verticalAlign=top;aspect=fixed;imageAspect=0;image=data:image/svg+xml,PHN2ZyB4bWxuczp4bGluaz0iaHR0cDovL3d3dy53My5vcmcvMTk5OS94bGluayIgeG1sbnM9Imh0dHA6Ly93d3cudzMub3JnLzIwMDAvc3ZnIiBoZWlnaHQ9IjIwMCIgd2lkdGg9IjIwMCIgdmVyc2lvbj0iMS4xIiB2aWV3Qm94PSIwIDAgMTAyNCAxMDI0IiBjbGFzcz0iaWNvbiI+PHBhdGggZmlsbD0iI0ZGNjYwMCIgZD0iTTk0Ny4xODY0IDQxNS41MDcwMTVoLTMwMi40ODY1NDdjLTI0LjE5MTI0NC0yLjkxMTkwOS00Mi42MjI2NjgtMjQuMTkxMjQ0LTQyLjYyMjY2OC00OS4yNzg0NnYtMzE3LjQzMDA4QTQ4Ljc2NjQ3NiA0OC43NjY0NzYgMCAwIDAgNTUzLjMxMDcwOSAwaC0xMDUuODUyNjkyYy0yNy4xMDMxNTMgMC00OC44NjI0NzMgMjEuOTgzMzEzLTQ4Ljg2MjQ3MyA0OC44NjI0NzN2MzIwLjc1Nzk3NmMtMS4zMTE5NTkgMjQuMTkxMjQ0LTIxLjI3OTMzNSA0My42Nzg2MzUtNDUuMjc4NTg1IDQ1LjkxODU2NUgyNzQuMDg3NDM1YTQ5LjQzODQ1NSA0OS40Mzg0NTUgMCAwIDEtNDIuODQ2NjYxLTQ1Ljk1MDU2NFY0OC44NjI0NzNDMjMxLjI0MDc3NCAyMS43NTkzMiAyMDkuMjU3NDYxIDAgMTgyLjQ0MjI5OSAwSDc2LjU1NzYwOEM0OS41MTg0NTMgMCAyNy43NTkxMzMgMjEuOTgzMzEzIDI3Ljc1OTEzMyA0OC44NjI0NzN2OTI2LjI3NTA1NGMwIDI3LjEwMzE1MyAyMS45ODMzMTMgNDguODYyNDczIDQ4Ljc5ODQ3NSA0OC44NjI0NzNoODcwLjg1Mjc4NWMyNy4xMDMxNTMgMCA0OC43OTg0NzUtMjEuOTgzMzEzIDQ4Ljc5ODQ3NS00OC44NjI0NzNWNDY0LjQwMTQ4N2E0OC45NTg0NyA0OC45NTg0NyAwIDAgMC00OS4wMjI0NjgtNDguODYyNDczeiBtLTEzOS4zNTU2NDUgMzUwLjI5MzA1NGMwIDI3LjEwMzE1My0yMS45ODMzMTMgNDguODYyNDczLTQ4Ljc5ODQ3NSA0OC44NjI0NzNoLTEwNS44NTI2OTJhNDguNzk4NDc1IDQ4Ljc5ODQ3NSAwIDAgMS00OC43OTg0NzUtNDguODYyNDczdi05OS44Njg4NzljMC0yNy4xMDMxNTMgMjEuOTgzMzEzLTQ4Ljg2MjQ3MyA0OC43OTg0NzUtNDguODYyNDczaDEwNS44NTI2OTJjMjcuMTAzMTUzIDAgNDguNzk4NDc1IDIxLjk4MzMxMyA0OC43OTg0NzUgNDguODYyNDczeiIvPjwvc3ZnPg==;metaEdit=0;" vertex="1" parent="1">
          <mxGeometry x="671" y="280" width="58" height="58" as="geometry" />
        </mxCell>
        <mxCell id="NSRwM32KTP1u861fhQLI-15" value="5.RPC" style="edgeStyle=orthogonalEdgeStyle;rounded=0;orthogonalLoop=1;jettySize=auto;html=1;" edge="1" parent="1" source="NSRwM32KTP1u861fhQLI-9" target="NSRwM32KTP1u861fhQLI-12">
          <mxGeometry relative="1" as="geometry" />
        </mxCell>
        <mxCell id="NSRwM32KTP1u861fhQLI-9" value="短链服务" style="rounded=0;whiteSpace=wrap;html=1;fillColor=#D5E8D4;" vertex="1" parent="1">
          <mxGeometry x="760" y="290" width="80" height="40" as="geometry" />
        </mxCell>
        <mxCell id="NSRwM32KTP1u861fhQLI-25" value="2.预扣减" style="edgeStyle=orthogonalEdgeStyle;rounded=0;orthogonalLoop=1;jettySize=auto;html=1;fontStyle=1" edge="1" parent="1" source="NSRwM32KTP1u861fhQLI-11" target="NSRwM32KTP1u861fhQLI-2">
          <mxGeometry relative="1" as="geometry" />
        </mxCell>
        <mxCell id="NSRwM32KTP1u861fhQLI-11" value="" style="image;sketch=0;aspect=fixed;html=1;points=[];align=center;fontSize=12;image=img/lib/mscae/Cache_Redis_Product.svg;" vertex="1" parent="1">
          <mxGeometry x="900" y="168" width="50" height="42" as="geometry" />
        </mxCell>
        <mxCell id="NSRwM32KTP1u861fhQLI-17" value="" style="edgeStyle=orthogonalEdgeStyle;rounded=0;orthogonalLoop=1;jettySize=auto;html=1;" edge="1" parent="1" source="NSRwM32KTP1u861fhQLI-12" target="NSRwM32KTP1u861fhQLI-16">
          <mxGeometry relative="1" as="geometry" />
        </mxCell>
        <mxCell id="NSRwM32KTP1u861fhQLI-12" value="流量包服务" style="rounded=0;whiteSpace=wrap;html=1;fillColor=#D5E8D4;" vertex="1" parent="1">
          <mxGeometry x="910" y="290" width="80" height="40" as="geometry" />
        </mxCell>
        <mxCell id="NSRwM32KTP1u861fhQLI-19" value="" style="edgeStyle=orthogonalEdgeStyle;rounded=0;orthogonalLoop=1;jettySize=auto;html=1;" edge="1" parent="1" source="NSRwM32KTP1u861fhQLI-16" target="NSRwM32KTP1u861fhQLI-18">
          <mxGeometry relative="1" as="geometry" />
        </mxCell>
        <mxCell id="NSRwM32KTP1u861fhQLI-16" value="查询流量包" style="rounded=0;whiteSpace=wrap;html=1;fillColor=none;" vertex="1" parent="1">
          <mxGeometry x="910" y="360" width="80" height="40" as="geometry" />
        </mxCell>
        <mxCell id="NSRwM32KTP1u861fhQLI-21" value="" style="edgeStyle=orthogonalEdgeStyle;rounded=0;orthogonalLoop=1;jettySize=auto;html=1;" edge="1" parent="1" source="NSRwM32KTP1u861fhQLI-18" target="NSRwM32KTP1u861fhQLI-20">
          <mxGeometry relative="1" as="geometry" />
        </mxCell>
        <mxCell id="NSRwM32KTP1u861fhQLI-18" value="更新流量包" style="rounded=0;whiteSpace=wrap;html=1;fillColor=none;" vertex="1" parent="1">
          <mxGeometry x="910" y="425" width="80" height="40" as="geometry" />
        </mxCell>
        <mxCell id="NSRwM32KTP1u861fhQLI-20" value="扣减流量包" style="rounded=0;whiteSpace=wrap;html=1;fillColor=none;" vertex="1" parent="1">
          <mxGeometry x="910" y="490" width="80" height="40" as="geometry" />
        </mxCell>
        <mxCell id="NSRwM32KTP1u861fhQLI-23" value="6.更新剩余流量包，设置当天过期" style="edgeStyle=orthogonalEdgeStyle;rounded=0;orthogonalLoop=1;jettySize=auto;html=1;" edge="1" parent="1" source="NSRwM32KTP1u861fhQLI-22" target="NSRwM32KTP1u861fhQLI-11">
          <mxGeometry relative="1" as="geometry">
            <Array as="points">
              <mxPoint x="1070" y="380" />
              <mxPoint x="1070" y="189" />
            </Array>
          </mxGeometry>
        </mxCell>
        <mxCell id="NSRwM32KTP1u861fhQLI-45" value="响应用户" style="edgeStyle=orthogonalEdgeStyle;rounded=0;orthogonalLoop=1;jettySize=auto;html=1;" edge="1" parent="1" source="NSRwM32KTP1u861fhQLI-26" target="NSRwM32KTP1u861fhQLI-28">
          <mxGeometry relative="1" as="geometry">
            <Array as="points">
              <mxPoint x="-345" y="335" />
            </Array>
          </mxGeometry>
        </mxCell>
        <mxCell id="NSRwM32KTP1u861fhQLI-26" value="" style="rounded=0;whiteSpace=wrap;html=1;fillColor=none;strokeColor=default;dashed=1;" vertex="1" parent="1">
          <mxGeometry x="150" y="205" width="160" height="260" as="geometry" />
        </mxCell>
        <mxCell id="NSRwM32KTP1u861fhQLI-27" value="" style="edgeStyle=orthogonalEdgeStyle;rounded=0;orthogonalLoop=1;jettySize=auto;html=1;flowAnimation=0;" edge="1" parent="1" source="NSRwM32KTP1u861fhQLI-28" target="NSRwM32KTP1u861fhQLI-30">
          <mxGeometry relative="1" as="geometry" />
        </mxCell>
        <mxCell id="NSRwM32KTP1u861fhQLI-28" value="User" style="shape=umlActor;verticalLabelPosition=bottom;verticalAlign=top;html=1;outlineConnect=0;" vertex="1" parent="1">
          <mxGeometry x="-360" y="205" width="30" height="60" as="geometry" />
        </mxCell>
        <mxCell id="NSRwM32KTP1u861fhQLI-29" value="发送MQ" style="edgeStyle=orthogonalEdgeStyle;rounded=0;orthogonalLoop=1;jettySize=auto;html=1;" edge="1" parent="1" source="NSRwM32KTP1u861fhQLI-30" target="NSRwM32KTP1u861fhQLI-32">
          <mxGeometry relative="1" as="geometry" />
        </mxCell>
        <mxCell id="NSRwM32KTP1u861fhQLI-30" value="创建短链" style="rounded=0;whiteSpace=wrap;html=1;fillColor=none;" vertex="1" parent="1">
          <mxGeometry x="-270" y="215" width="80" height="40" as="geometry" />
        </mxCell>
        <mxCell id="NSRwM32KTP1u861fhQLI-31" value="" style="edgeStyle=orthogonalEdgeStyle;rounded=0;orthogonalLoop=1;jettySize=auto;html=1;" edge="1" parent="1" source="NSRwM32KTP1u861fhQLI-32" target="NSRwM32KTP1u861fhQLI-34">
          <mxGeometry relative="1" as="geometry" />
        </mxCell>
        <mxCell id="NSRwM32KTP1u861fhQLI-32" value="" style="shape=image;verticalLabelPosition=bottom;labelBackgroundColor=default;verticalAlign=top;aspect=fixed;imageAspect=0;image=data:image/svg+xml,PHN2ZyB4bWxuczp4bGluaz0iaHR0cDovL3d3dy53My5vcmcvMTk5OS94bGluayIgeG1sbnM9Imh0dHA6Ly93d3cudzMub3JnLzIwMDAvc3ZnIiBoZWlnaHQ9IjIwMCIgd2lkdGg9IjIwMCIgdmVyc2lvbj0iMS4xIiB2aWV3Qm94PSIwIDAgMTAyNCAxMDI0IiBjbGFzcz0iaWNvbiI+PHBhdGggZmlsbD0iI0ZGNjYwMCIgZD0iTTk0Ny4xODY0IDQxNS41MDcwMTVoLTMwMi40ODY1NDdjLTI0LjE5MTI0NC0yLjkxMTkwOS00Mi42MjI2NjgtMjQuMTkxMjQ0LTQyLjYyMjY2OC00OS4yNzg0NnYtMzE3LjQzMDA4QTQ4Ljc2NjQ3NiA0OC43NjY0NzYgMCAwIDAgNTUzLjMxMDcwOSAwaC0xMDUuODUyNjkyYy0yNy4xMDMxNTMgMC00OC44NjI0NzMgMjEuOTgzMzEzLTQ4Ljg2MjQ3MyA0OC44NjI0NzN2MzIwLjc1Nzk3NmMtMS4zMTE5NTkgMjQuMTkxMjQ0LTIxLjI3OTMzNSA0My42Nzg2MzUtNDUuMjc4NTg1IDQ1LjkxODU2NUgyNzQuMDg3NDM1YTQ5LjQzODQ1NSA0OS40Mzg0NTUgMCAwIDEtNDIuODQ2NjYxLTQ1Ljk1MDU2NFY0OC44NjI0NzNDMjMxLjI0MDc3NCAyMS43NTkzMiAyMDkuMjU3NDYxIDAgMTgyLjQ0MjI5OSAwSDc2LjU1NzYwOEM0OS41MTg0NTMgMCAyNy43NTkxMzMgMjEuOTgzMzEzIDI3Ljc1OTEzMyA0OC44NjI0NzN2OTI2LjI3NTA1NGMwIDI3LjEwMzE1MyAyMS45ODMzMTMgNDguODYyNDczIDQ4Ljc5ODQ3NSA0OC44NjI0NzNoODcwLjg1Mjc4NWMyNy4xMDMxNTMgMCA0OC43OTg0NzUtMjEuOTgzMzEzIDQ4Ljc5ODQ3NS00OC44NjI0NzNWNDY0LjQwMTQ4N2E0OC45NTg0NyA0OC45NTg0NyAwIDAgMC00OS4wMjI0NjgtNDguODYyNDczeiBtLTEzOS4zNTU2NDUgMzUwLjI5MzA1NGMwIDI3LjEwMzE1My0yMS45ODMzMTMgNDguODYyNDczLTQ4Ljc5ODQ3NSA0OC44NjI0NzNoLTEwNS44NTI2OTJhNDguNzk4NDc1IDQ4Ljc5ODQ3NSAwIDAgMS00OC43OTg0NzUtNDguODYyNDczdi05OS44Njg4NzljMC0yNy4xMDMxNTMgMjEuOTgzMzEzLTQ4Ljg2MjQ3MyA0OC43OTg0NzUtNDguODYyNDczaDEwNS44NTI2OTJjMjcuMTAzMTUzIDAgNDguNzk4NDc1IDIxLjk4MzMxMyA0OC43OTg0NzUgNDguODYyNDczeiIvPjwvc3ZnPg==;metaEdit=0;" vertex="1" parent="1">
          <mxGeometry x="-109" y="205" width="58" height="58" as="geometry" />
        </mxCell>
        <mxCell id="NSRwM32KTP1u861fhQLI-33" value="RPC" style="edgeStyle=orthogonalEdgeStyle;rounded=0;orthogonalLoop=1;jettySize=auto;html=1;" edge="1" parent="1" source="NSRwM32KTP1u861fhQLI-34" target="NSRwM32KTP1u861fhQLI-38">
          <mxGeometry relative="1" as="geometry">
            <mxPoint x="90" y="334" as="sourcePoint" />
            <Array as="points">
              <mxPoint x="160" y="234" />
              <mxPoint x="160" y="234" />
            </Array>
          </mxGeometry>
        </mxCell>
        <mxCell id="NSRwM32KTP1u861fhQLI-34" value="短链服务" style="rounded=0;whiteSpace=wrap;html=1;fillColor=#D5E8D4;" vertex="1" parent="1">
          <mxGeometry x="10" y="214" width="80" height="40" as="geometry" />
        </mxCell>
        <mxCell id="NSRwM32KTP1u861fhQLI-37" value="" style="edgeStyle=orthogonalEdgeStyle;rounded=0;orthogonalLoop=1;jettySize=auto;html=1;" edge="1" parent="1" source="NSRwM32KTP1u861fhQLI-38" target="NSRwM32KTP1u861fhQLI-40">
          <mxGeometry relative="1" as="geometry" />
        </mxCell>
        <mxCell id="NSRwM32KTP1u861fhQLI-38" value="流量包服务" style="rounded=0;whiteSpace=wrap;html=1;fillColor=#D5E8D4;" vertex="1" parent="1">
          <mxGeometry x="180" y="215" width="80" height="40" as="geometry" />
        </mxCell>
        <mxCell id="NSRwM32KTP1u861fhQLI-39" value="" style="edgeStyle=orthogonalEdgeStyle;rounded=0;orthogonalLoop=1;jettySize=auto;html=1;" edge="1" parent="1" source="NSRwM32KTP1u861fhQLI-40" target="NSRwM32KTP1u861fhQLI-42">
          <mxGeometry relative="1" as="geometry" />
        </mxCell>
        <mxCell id="NSRwM32KTP1u861fhQLI-40" value="查询流量包" style="rounded=0;whiteSpace=wrap;html=1;fillColor=none;" vertex="1" parent="1">
          <mxGeometry x="180" y="285" width="80" height="40" as="geometry" />
        </mxCell>
        <mxCell id="NSRwM32KTP1u861fhQLI-41" value="" style="edgeStyle=orthogonalEdgeStyle;rounded=0;orthogonalLoop=1;jettySize=auto;html=1;" edge="1" parent="1" source="NSRwM32KTP1u861fhQLI-42" target="NSRwM32KTP1u861fhQLI-43">
          <mxGeometry relative="1" as="geometry" />
        </mxCell>
        <mxCell id="NSRwM32KTP1u861fhQLI-42" value="更新流量包" style="rounded=0;whiteSpace=wrap;html=1;fillColor=none;" vertex="1" parent="1">
          <mxGeometry x="180" y="350" width="80" height="40" as="geometry" />
        </mxCell>
        <mxCell id="NSRwM32KTP1u861fhQLI-43" value="扣减流量包" style="rounded=0;whiteSpace=wrap;html=1;fillColor=none;" vertex="1" parent="1">
          <mxGeometry x="180" y="415" width="80" height="40" as="geometry" />
        </mxCell>
        <mxCell id="NSRwM32KTP1u861fhQLI-46" value="50ms" style="text;html=1;align=center;verticalAlign=middle;resizable=0;points=[];autosize=1;strokeColor=none;fillColor=none;" vertex="1" parent="1">
          <mxGeometry x="-255" y="185" width="50" height="30" as="geometry" />
        </mxCell>
        <mxCell id="NSRwM32KTP1u861fhQLI-47" value="50ms" style="text;html=1;align=center;verticalAlign=middle;resizable=0;points=[];autosize=1;strokeColor=none;fillColor=none;" vertex="1" parent="1">
          <mxGeometry x="-110" y="175" width="50" height="30" as="geometry" />
        </mxCell>
        <mxCell id="NSRwM32KTP1u861fhQLI-48" value="100ms" style="text;html=1;align=center;verticalAlign=middle;resizable=0;points=[];autosize=1;strokeColor=none;fillColor=none;" vertex="1" parent="1">
          <mxGeometry x="20" y="184" width="60" height="30" as="geometry" />
        </mxCell>
        <mxCell id="NSRwM32KTP1u861fhQLI-49" value="50ms" style="text;html=1;align=center;verticalAlign=middle;resizable=0;points=[];autosize=1;strokeColor=none;fillColor=none;" vertex="1" parent="1">
          <mxGeometry x="260" y="290" width="50" height="30" as="geometry" />
        </mxCell>
        <mxCell id="NSRwM32KTP1u861fhQLI-50" value="50ms" style="text;html=1;align=center;verticalAlign=middle;resizable=0;points=[];autosize=1;strokeColor=none;fillColor=none;" vertex="1" parent="1">
          <mxGeometry x="260" y="354" width="50" height="30" as="geometry" />
        </mxCell>
        <mxCell id="NSRwM32KTP1u861fhQLI-51" value="50ms" style="text;html=1;align=center;verticalAlign=middle;resizable=0;points=[];autosize=1;strokeColor=none;fillColor=none;" vertex="1" parent="1">
          <mxGeometry x="260" y="420" width="50" height="30" as="geometry" />
        </mxCell>
        <mxCell id="NSRwM32KTP1u861fhQLI-52" value="总耗时 = 350ms" style="text;html=1;align=center;verticalAlign=middle;resizable=0;points=[];autosize=1;strokeColor=none;fillColor=none;fontStyle=1" vertex="1" parent="1">
          <mxGeometry x="-190" y="350" width="110" height="30" as="geometry" />
        </mxCell>
        <mxCell id="NSRwM32KTP1u861fhQLI-53" value="10ms" style="text;html=1;align=center;verticalAlign=middle;resizable=0;points=[];autosize=1;strokeColor=none;fillColor=none;" vertex="1" parent="1">
          <mxGeometry x="800" y="140" width="50" height="30" as="geometry" />
        </mxCell>
        <mxCell id="NSRwM32KTP1u861fhQLI-55" value="50ms" style="text;html=1;align=center;verticalAlign=middle;resizable=0;points=[];autosize=1;strokeColor=none;fillColor=none;" vertex="1" parent="1">
          <mxGeometry x="679" y="138" width="50" height="30" as="geometry" />
        </mxCell>
        <mxCell id="NSRwM32KTP1u861fhQLI-56" value="4.响应用户" style="edgeStyle=orthogonalEdgeStyle;rounded=0;orthogonalLoop=1;jettySize=auto;html=1;entryX=1;entryY=0.3333333333333333;entryDx=0;entryDy=0;entryPerimeter=0;fontStyle=1" edge="1" parent="1" source="NSRwM32KTP1u861fhQLI-2" target="NSRwM32KTP1u861fhQLI-1">
          <mxGeometry relative="1" as="geometry">
            <Array as="points">
              <mxPoint x="630" y="180" />
              <mxPoint x="630" y="180" />
            </Array>
          </mxGeometry>
        </mxCell>
        <mxCell id="NSRwM32KTP1u861fhQLI-63" value="50ms" style="text;html=1;align=center;verticalAlign=middle;resizable=0;points=[];autosize=1;strokeColor=none;fillColor=none;" vertex="1" parent="1">
          <mxGeometry x="729" y="233" width="50" height="30" as="geometry" />
        </mxCell>
        <mxCell id="NSRwM32KTP1u861fhQLI-64" value="总耗时 = 110ms" style="text;html=1;align=center;verticalAlign=middle;resizable=0;points=[];autosize=1;strokeColor=none;fillColor=none;fontStyle=1" vertex="1" parent="1">
          <mxGeometry x="560" y="130" width="110" height="30" as="geometry" />
        </mxCell>
        <mxCell id="NSRwM32KTP1u861fhQLI-65" value="50ms" style="text;html=1;align=center;verticalAlign=middle;resizable=0;points=[];autosize=1;strokeColor=none;fillColor=none;" vertex="1" parent="1">
          <mxGeometry x="990" y="365" width="50" height="30" as="geometry" />
        </mxCell>
        <mxCell id="NSRwM32KTP1u861fhQLI-66" value="50ms" style="text;html=1;align=center;verticalAlign=middle;resizable=0;points=[];autosize=1;strokeColor=none;fillColor=none;" vertex="1" parent="1">
          <mxGeometry x="990" y="430" width="50" height="30" as="geometry" />
        </mxCell>
        <mxCell id="NSRwM32KTP1u861fhQLI-67" value="50ms" style="text;html=1;align=center;verticalAlign=middle;resizable=0;points=[];autosize=1;strokeColor=none;fillColor=none;" vertex="1" parent="1">
          <mxGeometry x="990" y="495" width="50" height="30" as="geometry" />
        </mxCell>
        <mxCell id="NSRwM32KTP1u861fhQLI-68" value="100ms" style="text;html=1;align=center;verticalAlign=middle;resizable=0;points=[];autosize=1;strokeColor=none;fillColor=none;" vertex="1" parent="1">
          <mxGeometry x="835" y="254" width="60" height="30" as="geometry" />
        </mxCell>
        <mxCell id="NSRwM32KTP1u861fhQLI-69" value="50ms" style="text;html=1;align=center;verticalAlign=middle;resizable=0;points=[];autosize=1;strokeColor=none;fillColor=none;" vertex="1" parent="1">
          <mxGeometry x="1160" y="225" width="50" height="30" as="geometry" />
        </mxCell>
        <mxCell id="NSRwM32KTP1u861fhQLI-71" value="3.秒杀请求" style="edgeStyle=orthogonalEdgeStyle;rounded=0;orthogonalLoop=1;jettySize=auto;html=1;flowAnimation=0;" edge="1" parent="1" source="NSRwM32KTP1u861fhQLI-72" target="NSRwM32KTP1u861fhQLI-74">
          <mxGeometry relative="1" as="geometry">
            <Array as="points">
              <mxPoint x="1500" y="220" />
              <mxPoint x="1500" y="220" />
            </Array>
          </mxGeometry>
        </mxCell>
        <mxCell id="NSRwM32KTP1u861fhQLI-103" value="6.等待支付" style="edgeStyle=orthogonalEdgeStyle;rounded=0;orthogonalLoop=1;jettySize=auto;html=1;entryX=0;entryY=0.5;entryDx=0;entryDy=0;" edge="1" parent="1" source="NSRwM32KTP1u861fhQLI-72" target="NSRwM32KTP1u861fhQLI-78">
          <mxGeometry relative="1" as="geometry">
            <Array as="points">
              <mxPoint x="1435" y="415" />
            </Array>
          </mxGeometry>
        </mxCell>
        <mxCell id="NSRwM32KTP1u861fhQLI-72" value="User" style="shape=umlActor;verticalLabelPosition=bottom;verticalAlign=top;html=1;outlineConnect=0;" vertex="1" parent="1">
          <mxGeometry x="1420" y="190" width="30" height="60" as="geometry" />
        </mxCell>
        <mxCell id="NSRwM32KTP1u861fhQLI-73" value="5.发送MQ" style="edgeStyle=orthogonalEdgeStyle;rounded=0;orthogonalLoop=1;jettySize=auto;html=1;fontStyle=0" edge="1" parent="1" source="NSRwM32KTP1u861fhQLI-74" target="NSRwM32KTP1u861fhQLI-76">
          <mxGeometry relative="1" as="geometry" />
        </mxCell>
        <mxCell id="NSRwM32KTP1u861fhQLI-74" value="库存服务" style="rounded=0;whiteSpace=wrap;html=1;fillColor=#D5E8D4;fontStyle=0" vertex="1" parent="1">
          <mxGeometry x="1550" y="200" width="80" height="40" as="geometry" />
        </mxCell>
        <mxCell id="NSRwM32KTP1u861fhQLI-75" value="" style="edgeStyle=orthogonalEdgeStyle;rounded=0;orthogonalLoop=1;jettySize=auto;html=1;" edge="1" parent="1" source="NSRwM32KTP1u861fhQLI-76" target="NSRwM32KTP1u861fhQLI-78">
          <mxGeometry relative="1" as="geometry" />
        </mxCell>
        <mxCell id="NSRwM32KTP1u861fhQLI-76" value="" style="shape=image;verticalLabelPosition=bottom;labelBackgroundColor=default;verticalAlign=top;aspect=fixed;imageAspect=0;image=data:image/svg+xml,PHN2ZyB4bWxuczp4bGluaz0iaHR0cDovL3d3dy53My5vcmcvMTk5OS94bGluayIgeG1sbnM9Imh0dHA6Ly93d3cudzMub3JnLzIwMDAvc3ZnIiBoZWlnaHQ9IjIwMCIgd2lkdGg9IjIwMCIgdmVyc2lvbj0iMS4xIiB2aWV3Qm94PSIwIDAgMTAyNCAxMDI0IiBjbGFzcz0iaWNvbiI+PHBhdGggZmlsbD0iI0ZGNjYwMCIgZD0iTTk0Ny4xODY0IDQxNS41MDcwMTVoLTMwMi40ODY1NDdjLTI0LjE5MTI0NC0yLjkxMTkwOS00Mi42MjI2NjgtMjQuMTkxMjQ0LTQyLjYyMjY2OC00OS4yNzg0NnYtMzE3LjQzMDA4QTQ4Ljc2NjQ3NiA0OC43NjY0NzYgMCAwIDAgNTUzLjMxMDcwOSAwaC0xMDUuODUyNjkyYy0yNy4xMDMxNTMgMC00OC44NjI0NzMgMjEuOTgzMzEzLTQ4Ljg2MjQ3MyA0OC44NjI0NzN2MzIwLjc1Nzk3NmMtMS4zMTE5NTkgMjQuMTkxMjQ0LTIxLjI3OTMzNSA0My42Nzg2MzUtNDUuMjc4NTg1IDQ1LjkxODU2NUgyNzQuMDg3NDM1YTQ5LjQzODQ1NSA0OS40Mzg0NTUgMCAwIDEtNDIuODQ2NjYxLTQ1Ljk1MDU2NFY0OC44NjI0NzNDMjMxLjI0MDc3NCAyMS43NTkzMiAyMDkuMjU3NDYxIDAgMTgyLjQ0MjI5OSAwSDc2LjU1NzYwOEM0OS41MTg0NTMgMCAyNy43NTkxMzMgMjEuOTgzMzEzIDI3Ljc1OTEzMyA0OC44NjI0NzN2OTI2LjI3NTA1NGMwIDI3LjEwMzE1MyAyMS45ODMzMTMgNDguODYyNDczIDQ4Ljc5ODQ3NSA0OC44NjI0NzNoODcwLjg1Mjc4NWMyNy4xMDMxNTMgMCA0OC43OTg0NzUtMjEuOTgzMzEzIDQ4Ljc5ODQ3NS00OC44NjI0NzNWNDY0LjQwMTQ4N2E0OC45NTg0NyA0OC45NTg0NyAwIDAgMC00OS4wMjI0NjgtNDguODYyNDczeiBtLTEzOS4zNTU2NDUgMzUwLjI5MzA1NGMwIDI3LjEwMzE1My0yMS45ODMzMTMgNDguODYyNDczLTQ4Ljc5ODQ3NSA0OC44NjI0NzNoLTEwNS44NTI2OTJhNDguNzk4NDc1IDQ4Ljc5ODQ3NSAwIDAgMS00OC43OTg0NzUtNDguODYyNDczdi05OS44Njg4NzljMC0yNy4xMDMxNTMgMjEuOTgzMzEzLTQ4Ljg2MjQ3MyA0OC43OTg0NzUtNDguODYyNDczaDEwNS44NTI2OTJjMjcuMTAzMTUzIDAgNDguNzk4NDc1IDIxLjk4MzMxMyA0OC43OTg0NzUgNDguODYyNDczeiIvPjwvc3ZnPg==;metaEdit=0;" vertex="1" parent="1">
          <mxGeometry x="1561" y="310" width="58" height="58" as="geometry" />
        </mxCell>
        <mxCell id="NSRwM32KTP1u861fhQLI-77" value="7.RPC" style="edgeStyle=orthogonalEdgeStyle;rounded=0;orthogonalLoop=1;jettySize=auto;html=1;" edge="1" parent="1" source="NSRwM32KTP1u861fhQLI-78" target="NSRwM32KTP1u861fhQLI-82">
          <mxGeometry relative="1" as="geometry" />
        </mxCell>
        <mxCell id="NSRwM32KTP1u861fhQLI-78" value="订单服务" style="rounded=0;whiteSpace=wrap;html=1;fillColor=#D5E8D4;" vertex="1" parent="1">
          <mxGeometry x="1550" y="395" width="80" height="40" as="geometry" />
        </mxCell>
        <mxCell id="NSRwM32KTP1u861fhQLI-79" value="4.预扣减" style="edgeStyle=orthogonalEdgeStyle;rounded=0;orthogonalLoop=1;jettySize=auto;html=1;fontStyle=0" edge="1" parent="1" source="NSRwM32KTP1u861fhQLI-80" target="NSRwM32KTP1u861fhQLI-74">
          <mxGeometry relative="1" as="geometry" />
        </mxCell>
        <mxCell id="NSRwM32KTP1u861fhQLI-80" value="" style="image;sketch=0;aspect=fixed;html=1;points=[];align=center;fontSize=12;image=img/lib/mscae/Cache_Redis_Product.svg;" vertex="1" parent="1">
          <mxGeometry x="1740" y="200" width="50" height="42" as="geometry" />
        </mxCell>
        <mxCell id="NSRwM32KTP1u861fhQLI-82" value="扣减库存" style="rounded=0;whiteSpace=wrap;html=1;fillColor=#D5E8D4;" vertex="1" parent="1">
          <mxGeometry x="1750" y="395" width="80" height="40" as="geometry" />
        </mxCell>
        <mxCell id="NSRwM32KTP1u861fhQLI-102" value="2.提前一天保存到Redis" style="edgeStyle=orthogonalEdgeStyle;rounded=0;orthogonalLoop=1;jettySize=auto;html=1;" edge="1" parent="1" source="NSRwM32KTP1u861fhQLI-99" target="NSRwM32KTP1u861fhQLI-80">
          <mxGeometry relative="1" as="geometry" />
        </mxCell>
        <mxCell id="NSRwM32KTP1u861fhQLI-99" value="分布式调度&lt;br&gt;定时任务" style="rounded=0;whiteSpace=wrap;html=1;fillColor=#E1D5E7;fontStyle=0" vertex="1" parent="1">
          <mxGeometry x="1980" y="200" width="80" height="40" as="geometry" />
        </mxCell>
        <mxCell id="NSRwM32KTP1u861fhQLI-101" value="1.加载秒杀活动的商品" style="edgeStyle=orthogonalEdgeStyle;rounded=0;orthogonalLoop=1;jettySize=auto;html=1;" edge="1" parent="1" source="NSRwM32KTP1u861fhQLI-100" target="NSRwM32KTP1u861fhQLI-99">
          <mxGeometry relative="1" as="geometry" />
        </mxCell>
        <mxCell id="NSRwM32KTP1u861fhQLI-100" value="秒杀服务" style="rounded=0;whiteSpace=wrap;html=1;fillColor=#D5E8D4;fontStyle=0" vertex="1" parent="1">
          <mxGeometry x="1980" y="292" width="80" height="40" as="geometry" />
        </mxCell>
      </root>
    </mxGraphModel>
  </diagram>
</mxfile>
